<?xml version="1.0" encoding="iso-8859-1"?>
<!-- Generator: Adobe Illustrator 17.1.0, SVG Export Plug-In . SVG Version: 6.00 Build 0)  -->
<!DOCTYPE svg PUBLIC "-//W3C//DTD SVG 1.1//EN" "http://www.w3.org/Graphics/SVG/1.1/DTD/svg11.dtd">
<svg version="1.1" id="Capa_1" xmlns="http://www.w3.org/2000/svg" xmlns:xlink="http://www.w3.org/1999/xlink" x="0px" y="0px"
	 viewBox="0 0 261.038 261.038" style="enable-background:new 0 0 261.038 261.038;" xml:space="preserve">
<path d="M252.741,93.74c-0.877,0-1.777,0.125-2.677,0.373l-10.172,2.802l-10.563-25.73c-2.992-7.289-11.837-13.219-19.716-13.219
	h-98.851c-7.879,0-16.724,5.93-19.717,13.219L83.155,90.41c0.116-1.276,0.181-2.563,0.181-3.861c0-14.912-8.05-28.779-21.01-36.192
	c-0.689-0.394-1.487-0.602-2.309-0.602c-2.613,0-4.584,2.039-4.584,4.729c0,0-0.081,20.859-0.079,27.811
	c-0.001,0.729-0.872,1.597-1.235,1.859l-0.261,0.196c-4.17,3.469-9.428,7.377-11.752,8.586c-0.146-0.001-0.288-0.005-0.438-0.005
	c-0.16,0-0.311,0.004-0.467,0.005c-2.357-1.211-7.7-5.187-11.932-8.722l-0.265-0.2c-0.011-0.007-1.025-0.82-1.025-2.386
	c0-7.236-0.073-27.128-0.073-27.128c-0.003-3.134-2.248-4.774-4.464-4.774c-0.857,0-1.742,0.236-2.498,0.668
	C8.025,57.817,0,71.67,0,86.548c0,17.45,10.787,32.42,26.04,38.616l-0.002,70.949c0,8.38,6.817,15.197,15.197,15.197h0.865
	c8.38,0,15.197-6.817,15.197-15.197l0.002-70.922c5.115-2.069,9.813-5.159,13.833-9.179c0.976-0.976,1.896-1.991,2.761-3.043
	l-4.254,10.362c-2.78,6.771-5.043,18.236-5.043,25.558v51.115c0,5.906,4.806,10.712,10.712,10.712h13.99
	c5.906,0,10.712-4.805,10.712-10.712v-12.765h120.357v12.765c0,5.906,4.806,10.712,10.712,10.712h13.988
	c5.906,0,10.712-4.805,10.712-10.712v-51.115c0-7.321-2.262-18.786-5.042-25.558l-1.705-4.153h1.293
	c5.906,0,10.712-4.805,10.712-10.712v-5.996C261.038,97.412,257.549,93.74,252.741,93.74z M88.18,113.363l15.978-38.919
	c1.789-4.36,7.11-7.927,11.823-7.927h88.418c4.713,0,10.034,3.567,11.823,7.927l15.978,38.919c1.789,4.36-0.603,7.927-5.315,7.927
	H93.495C88.782,121.29,86.391,117.723,88.18,113.363z M123.847,162.589c0,2.356-1.928,4.285-4.284,4.285H89.21
	c-2.356,0-4.284-1.928-4.284-4.285v-14.566c0-2.356,1.928-4.285,4.284-4.285h30.353c2.356,0,4.284,1.928,4.284,4.285V162.589z
	 M235.165,162.589c0,2.356-1.928,4.285-4.284,4.285h-30.352c-2.356,0-4.284-1.928-4.284-4.285v-14.566
	c0-2.356,1.928-4.285,4.284-4.285h30.352c2.356,0,4.284,1.928,4.284,4.285V162.589z"/>
<g>
</g>
<g>
</g>
<g>
</g>
<g>
</g>
<g>
</g>
<g>
</g>
<g>
</g>
<g>
</g>
<g>
</g>
<g>
</g>
<g>
</g>
<g>
</g>
<g>
</g>
<g>
</g>
<g>
</g>
</svg>
